{"title":"City.of.Men.2007.DVDRiP.XviD.OPTIONAL-MULTISUB-Zen_Bud","uid":5904749,"size":879005870,"categoryP":"video","categoryS":"movies","magnet":"?xt=urn:btih:a159867b7eccbfa186261e30b3562ed3bd167b54&amp;dn=City.of.Men.2007.DVDRiP.XviD.OPTIONAL-MULTISUB-Zen_Bud&amp;tr=udp%3A%2F%2Ftracker.openbittorrent.com%3A80&amp;tr=udp%3A%2F%2Fopen.demonii.com%3A1337&amp;tr=udp%3A%2F%2Ftracker.coppersurfer.tk%3A6969&amp;tr=udp%3A%2F%2Fexodus.desync.com%3A6969","seeders":1,"leechers":0,"uploader":"Zen_Bud","files":-1,"time":1287819896,"description":"\n******* City.of.Men.2007.DVDRiP.XviD.OPTIONAL-MULTISUB-Zen_Bud *******\n\nFormat                           : AVI\nFile size                        : 818 MiB\nDuration                         : 1h 42mn\nOverall bit rate                 : 1 118 Kbps\n\nVideo\n\nFormat                           : MPEG-4 Visual\nCodec ID/Hint                    : XviD\nDuration                         : 1h 42mn\nBit rate                         : 977 Kbps\nWidth                            : 716 pixels\nHeight                           : 552 pixels\nDisplay aspect ratio             : 16:9\nStream size                      : 715 MiB (87%)\nWriting library                  : XviD 1.1.2 (UTC 2006-11-01)\n\nAudio\n\nFormat                           : MPEG Audio\nCodec ID/Hint                    : MP3\nDuration                         : 1h 42mn\nBit rate                         : 128 Kbps\nChannel(s)                       : 2 channels\nSampling rate                    : 48.0 KHz\nStream size                      : 93.6 MiB (11%)\nLanguage                         : Portuguese\n\nText #1\nLanguage                         : Danish\n\nText #2\nLanguage                         : Swedish\n\nText #3\nLanguage                         : Norwegian\n\nText #4\nLanguage                         : Finnish\n\nText #5\nLanguage                         : Icelandic\n\nBest buddies Acerola and Laranjinha, about to turn 18, discover things about their missing fathers' pasts which will shatter their solid friendship, in the middle of a war between rival drug gangs from Rio's favelas. ","torrent":{"xt":"urn:btih:a159867b7eccbfa186261e30b3562ed3bd167b54","amp;dn":"City.of.Men.2007.DVDRiP.XviD.OPTIONAL-MULTISUB-Zen_Bud","amp;tr":["udp%3A%2F%2Ftracker.openbittorrent.com%3A80","udp%3A%2F%2Fopen.demonii.com%3A1337","udp%3A%2F%2Ftracker.coppersurfer.tk%3A6969","udp%3A%2F%2Fexodus.desync.com%3A6969"],"infoHash":"a159867b7eccbfa186261e30b3562ed3bd167b54","infoHashBuffer":{"type":"Buffer","data":[161,89,134,123,126,204,191,161,134,38,30,48,179,86,46,211,189,22,123,84]},"announce":[],"urlList":[]}}